{
	"asset":{
		"generator":"Khronos glTF Blender I/O v4.1.63",
		"version":"2.0"
	},
	"scene":0,
	"scenes":[
		{
			"name":"Scene",
			"nodes":[
				0
			]
		}
	],
	"nodes":[
		{
			"mesh":0,
			"name":"BASE_A0509S"
		}
	],
	"materials":[
		{
			"doubleSided":true,
			"name":"mat_0",
			"pbrMetallicRoughness":{
				"baseColorFactor":[
					0.9130986332893372,
					0.9130986332893372,
					0.9215818643569946,
					1
				],
				"metallicFactor":0.5,
				"roughnessFactor":0.5
			}
		}
	],
	"meshes":[
		{
			"name":"BASE_A0509S",
			"primitives":[
				{
					"attributes":{
						"POSITION":0,
						"NORMAL":1
					},
					"indices":2,
					"material":0
				}
			]
		}
	],
	"accessors":[
		{
			"bufferView":0,
			"componentType":5126,
			"count":4525,
			"max":[
				0.0909874364733696,
				0.09349998831748962,
				0.0909874439239502
			],
			"min":[
				-0.0909874439239502,
				0,
				-0.0909874364733696
			],
			"type":"VEC3"
		},
		{
			"bufferView":1,
			"componentType":5126,
			"count":4525,
			"type":"VEC3"
		},
		{
			"bufferView":2,
			"componentType":5123,
			"count":14988,
			"type":"SCALAR"
		}
	],
	"bufferViews":[
		{
			"buffer":0,
			"byteLength":54300,
			"byteOffset":0,
			"target":34962
		},
		{
			"buffer":0,
			"byteLength":54300,
			"byteOffset":54300,
			"target":34962
		},
		{
			"buffer":0,
			"byteLength":29976,
			"byteOffset":108600,
			"target":34963
		}
	],
	"buffers":[
		{
			"byteLength":138576,
			"uri":"DoosanA0509S_base.bin"
		}
	]
}
