{
	"asset":{
		"generator":"Khronos glTF Blender I/O v4.1.63",
		"version":"2.0"
	},
	"scene":0,
	"scenes":[
		{
			"name":"Scene",
			"nodes":[
				0
			]
		}
	],
	"nodes":[
		{
			"mesh":0,
			"name":"Fusion",
			"rotation":[
				0,
				0,
				0.3826834559440613,
				0.9238795638084412
			]
		}
	],
	"materials":[
		{
			"doubleSided":true,
			"name":"mat_0",
			"pbrMetallicRoughness":{
				"baseColorFactor":[
					0.2195262312889099,
					0.28744086623191833,
					0.3762621581554413,
					1
				],
				"metallicFactor":0.5,
				"roughnessFactor":0.5
			}
		},
		{
			"doubleSided":true,
			"name":"mat_0.001",
			"pbrMetallicRoughness":{
				"baseColorFactor":[
					0.2195262312889099,
					0.28744086623191833,
					0.3762621581554413,
					1
				],
				"metallicFactor":0.5,
				"roughnessFactor":0.5
			}
		}
	],
	"meshes":[
		{
			"name":"Fusion",
			"primitives":[
				{
					"attributes":{
						"POSITION":0,
						"NORMAL":1
					},
					"indices":2,
					"material":0
				},
				{
					"attributes":{
						"POSITION":3,
						"NORMAL":4
					},
					"indices":5,
					"material":1
				}
			]
		}
	],
	"accessors":[
		{
			"bufferView":0,
			"componentType":5126,
			"count":3583,
			"max":[
				0.24578404426574707,
				0.24564841389656067,
				0.16555459797382355
			],
			"min":[
				-0.08524385094642639,
				-0.08537915349006653,
				-0.04982393980026245
			],
			"type":"VEC3"
		},
		{
			"bufferView":1,
			"componentType":5126,
			"count":3583,
			"type":"VEC3"
		},
		{
			"bufferView":2,
			"componentType":5123,
			"count":11970,
			"type":"SCALAR"
		},
		{
			"bufferView":3,
			"componentType":5126,
			"count":3579,
			"max":[
				0.3096509575843811,
				0.3096507787704468,
				0.21905025839805603
			],
			"min":[
				0.18424290418624878,
				0.1842426061630249,
				0.06399967521429062
			],
			"type":"VEC3"
		},
		{
			"bufferView":4,
			"componentType":5126,
			"count":3579,
			"type":"VEC3"
		},
		{
			"bufferView":5,
			"componentType":5123,
			"count":12078,
			"type":"SCALAR"
		}
	],
	"bufferViews":[
		{
			"buffer":0,
			"byteLength":42996,
			"byteOffset":0,
			"target":34962
		},
		{
			"buffer":0,
			"byteLength":42996,
			"byteOffset":42996,
			"target":34962
		},
		{
			"buffer":0,
			"byteLength":23940,
			"byteOffset":85992,
			"target":34963
		},
		{
			"buffer":0,
			"byteLength":42948,
			"byteOffset":109932,
			"target":34962
		},
		{
			"buffer":0,
			"byteLength":42948,
			"byteOffset":152880,
			"target":34962
		},
		{
			"buffer":0,
			"byteLength":24156,
			"byteOffset":195828,
			"target":34963
		}
	],
	"buffers":[
		{
			"byteLength":219984,
			"uri":"DoosanA0509S_j2.bin"
		}
	]
}
