{
	"asset":{
		"generator":"Khronos glTF Blender I/O v4.1.63",
		"version":"2.0"
	},
	"scene":0,
	"scenes":[
		{
			"name":"Scene",
			"nodes":[
				0
			]
		}
	],
	"nodes":[
		{
			"mesh":0,
			"name":"\u30bd\u30ea\u30c3\u30c91",
			"rotation":[
				-0.7071068286895752,
				0,
				0,
				0.7071068286895752
			],
			"scale":[
				0.009999999776482582,
				0.009999999776482582,
				0.009999999776482582
			]
		}
	],
	"materials":[
		{
			"doubleSided":true,
			"name":"M245245246",
			"pbrMetallicRoughness":{
				"baseColorFactor":[
					0.9130989909172058,
					0.9130989909172058,
					0.9215819835662842,
					1
				],
				"metallicFactor":0,
				"roughnessFactor":0.8999999761581421
			}
		}
	],
	"meshes":[
		{
			"name":"\u30bd\u30ea\u30c3\u30c91",
			"primitives":[
				{
					"attributes":{
						"POSITION":0,
						"NORMAL":1
					},
					"indices":2,
					"material":0
				}
			]
		}
	],
	"accessors":[
		{
			"bufferView":0,
			"componentType":5126,
			"count":4156,
			"max":[
				4.274871826171875,
				4.275069236755371,
				2.799999237060547
			],
			"min":[
				-4.274871826171875,
				-4.275069236755371,
				-2.799999237060547
			],
			"type":"VEC3"
		},
		{
			"bufferView":1,
			"componentType":5126,
			"count":4156,
			"type":"VEC3"
		},
		{
			"bufferView":2,
			"componentType":5123,
			"count":14502,
			"type":"SCALAR"
		}
	],
	"bufferViews":[
		{
			"buffer":0,
			"byteLength":49872,
			"byteOffset":0,
			"target":34962
		},
		{
			"buffer":0,
			"byteLength":49872,
			"byteOffset":49872,
			"target":34962
		},
		{
			"buffer":0,
			"byteLength":29004,
			"byteOffset":99744,
			"target":34963
		}
	],
	"buffers":[
		{
			"byteLength":128748,
			"uri":"DoosanA0509S_j4.bin"
		}
	]
}
