{
	"asset":{
		"generator":"Khronos glTF Blender I/O v4.1.63",
		"version":"2.0"
	},
	"scene":0,
	"scenes":[
		{
			"name":"Scene",
			"nodes":[
				0
			]
		}
	],
	"nodes":[
		{
			"mesh":0,
			"name":"J1_A0509S"
		}
	],
	"materials":[
		{
			"doubleSided":true,
			"name":"mat_0.002",
			"pbrMetallicRoughness":{
				"baseColorFactor":[
					0.2195262312889099,
					0.28744086623191833,
					0.3762621581554413,
					1
				],
				"metallicFactor":0.5,
				"roughnessFactor":0.5
			}
		}
	],
	"meshes":[
		{
			"name":"J1_A0509S.001",
			"primitives":[
				{
					"attributes":{
						"POSITION":0,
						"NORMAL":1
					},
					"indices":2,
					"material":0
				}
			]
		}
	],
	"accessors":[
		{
			"bufferView":0,
			"componentType":5126,
			"count":6876,
			"max":[
				0.06106765940785408,
				0.10976962745189667,
				0.08049098402261734
			],
			"min":[
				-0.061056554317474365,
				-0.06150000914931297,
				-0.06055985391139984
			],
			"type":"VEC3"
		},
		{
			"bufferView":1,
			"componentType":5126,
			"count":6876,
			"type":"VEC3"
		},
		{
			"bufferView":2,
			"componentType":5123,
			"count":18945,
			"type":"SCALAR"
		}
	],
	"bufferViews":[
		{
			"buffer":0,
			"byteLength":82512,
			"byteOffset":0,
			"target":34962
		},
		{
			"buffer":0,
			"byteLength":82512,
			"byteOffset":82512,
			"target":34962
		},
		{
			"buffer":0,
			"byteLength":37890,
			"byteOffset":165024,
			"target":34963
		}
	],
	"buffers":[
		{
			"byteLength":202916,
			"uri":"DoosanA0509S_j0.bin"
		}
	]
}
