{
	"asset":{
		"generator":"Khronos glTF Blender I/O v4.1.63",
		"version":"2.0"
	},
	"scene":0,
	"scenes":[
		{
			"name":"Scene",
			"nodes":[
				0
			]
		}
	],
	"nodes":[
		{
			"mesh":0,
			"name":"Fusion001",
			"rotation":[
				0,
				0,
				-0.30070585012435913,
				0.9537169337272644
			]
		}
	],
	"materials":[
		{
			"doubleSided":true,
			"name":"mat_0",
			"pbrMetallicRoughness":{
				"baseColorFactor":[
					0.2195262312889099,
					0.28744086623191833,
					0.3762621581554413,
					1
				],
				"metallicFactor":0.5,
				"roughnessFactor":0.5
			}
		}
	],
	"meshes":[
		{
			"name":"Fusion001",
			"primitives":[
				{
					"attributes":{
						"POSITION":0,
						"NORMAL":1
					},
					"indices":2,
					"material":0
				}
			]
		}
	],
	"accessors":[
		{
			"bufferView":0,
			"componentType":5126,
			"count":6687,
			"max":[
				0.0608411505818367,
				0.3955596387386322,
				0.25091230869293213
			],
			"min":[
				-0.2949637770652771,
				-0.06072566285729408,
				0.08050358295440674
			],
			"type":"VEC3"
		},
		{
			"bufferView":1,
			"componentType":5126,
			"count":6687,
			"type":"VEC3"
		},
		{
			"bufferView":2,
			"componentType":5123,
			"count":21117,
			"type":"SCALAR"
		}
	],
	"bufferViews":[
		{
			"buffer":0,
			"byteLength":80244,
			"byteOffset":0,
			"target":34962
		},
		{
			"buffer":0,
			"byteLength":80244,
			"byteOffset":80244,
			"target":34962
		},
		{
			"buffer":0,
			"byteLength":42234,
			"byteOffset":160488,
			"target":34963
		}
	],
	"buffers":[
		{
			"byteLength":202724,
			"uri":"DoosanA0509S_j1.bin"
		}
	]
}
