{
	"asset":{
		"generator":"Khronos glTF Blender I/O v4.1.63",
		"version":"2.0"
	},
	"scene":0,
	"scenes":[
		{
			"name":"Scene",
			"nodes":[
				0
			]
		}
	],
	"nodes":[
		{
			"mesh":0,
			"name":"J6_A0509S"
		}
	],
	"materials":[
		{
			"doubleSided":true,
			"name":"mat_0",
			"pbrMetallicRoughness":{
				"baseColorFactor":[
					0.2195262312889099,
					0.28744086623191833,
					0.3762621581554413,
					1
				],
				"metallicFactor":0.5,
				"roughnessFactor":0.5
			}
		}
	],
	"meshes":[
		{
			"name":"J6_A0509S",
			"primitives":[
				{
					"attributes":{
						"POSITION":0,
						"NORMAL":1
					},
					"indices":2,
					"material":0
				}
			]
		}
	],
	"accessors":[
		{
			"bufferView":0,
			"componentType":5126,
			"count":8850,
			"max":[
				0.05026738718152046,
				0.07099193334579468,
				0.0639980286359787
			],
			"min":[
				-0.050460200756788254,
				-0.0978381484746933,
				-0.0502086877822876
			],
			"type":"VEC3"
		},
		{
			"bufferView":1,
			"componentType":5126,
			"count":8850,
			"type":"VEC3"
		},
		{
			"bufferView":2,
			"componentType":5123,
			"count":27750,
			"type":"SCALAR"
		}
	],
	"bufferViews":[
		{
			"buffer":0,
			"byteLength":106200,
			"byteOffset":0,
			"target":34962
		},
		{
			"buffer":0,
			"byteLength":106200,
			"byteOffset":106200,
			"target":34962
		},
		{
			"buffer":0,
			"byteLength":55500,
			"byteOffset":212400,
			"target":34963
		}
	],
	"buffers":[
		{
			"byteLength":267900,
			"uri":"DoosanA0509S_j3.bin"
		}
	]
}
