{
	"asset":{
		"generator":"Khronos glTF Blender I/O v4.1.63",
		"version":"2.0"
	},
	"scene":0,
	"scenes":[
		{
			"name":"Scene",
			"nodes":[
				2
			]
		}
	],
	"nodes":[
		{
			"mesh":0,
			"name":"GRIPPER_MODEL_LITE016",
			"rotation":[
				0,
				0,
				0.7071068286895752,
				0.7071067094802856
			]
		},
		{
			"children":[
				0
			],
			"name":"GRIPPER_MODEL_LITE019"
		},
		{
			"children":[
				1
			],
			"name":"KinovaGen3Lite",
			"rotation":[
				0.70710688829422,
				0,
				0,
				0.7071066498756409
			]
		}
	],
	"materials":[
		{
			"doubleSided":true,
			"name":"mat_1",
			"pbrMetallicRoughness":{
				"baseColorFactor":[
					0.7011018991470337,
					0.68668532371521,
					0.693871796131134,
					1
				],
				"metallicFactor":0.5,
				"roughnessFactor":0.5
			}
		},
		{
			"doubleSided":true,
			"name":"mat_6",
			"pbrMetallicRoughness":{
				"baseColorFactor":[
					0.68668532371521,
					0.7011018991470337,
					0.693871796131134,
					1
				],
				"metallicFactor":0.5,
				"roughnessFactor":0.5
			}
		},
		{
			"doubleSided":true,
			"name":"mat_7",
			"pbrMetallicRoughness":{
				"baseColorFactor":[
					0,
					0,
					0.2158605307340622,
					1
				],
				"metallicFactor":0.5,
				"roughnessFactor":0.5
			}
		}
	],
	"meshes":[
		{
			"name":"GRIPPER_MODEL_LITE016",
			"primitives":[
				{
					"attributes":{
						"POSITION":0,
						"NORMAL":1
					},
					"indices":2,
					"material":0
				},
				{
					"attributes":{
						"POSITION":3,
						"NORMAL":4
					},
					"indices":5,
					"material":1
				},
				{
					"attributes":{
						"POSITION":6,
						"NORMAL":7
					},
					"indices":8,
					"material":2
				}
			]
		}
	],
	"accessors":[
		{
			"bufferView":0,
			"componentType":5126,
			"count":10263,
			"max":[
				0.032604753971099854,
				0.03285203501582146,
				0.04810363054275513
			],
			"min":[
				-0.032894909381866455,
				-0.0331370010972023,
				-0.021400749683380127
			],
			"type":"VEC3"
		},
		{
			"bufferView":1,
			"componentType":5126,
			"count":10263,
			"type":"VEC3"
		},
		{
			"bufferView":2,
			"componentType":5123,
			"count":24600,
			"type":"SCALAR"
		},
		{
			"bufferView":3,
			"componentType":5126,
			"count":22674,
			"max":[
				0.05510491132736206,
				0.030652284622192383,
				0.04635363817214966
			],
			"min":[
				-0.05539512634277344,
				-0.030937254428863525,
				-0.02914637327194214
			],
			"type":"VEC3"
		},
		{
			"bufferView":4,
			"componentType":5126,
			"count":22674,
			"type":"VEC3"
		},
		{
			"bufferView":5,
			"componentType":5123,
			"count":69066,
			"type":"SCALAR"
		},
		{
			"bufferView":6,
			"componentType":5126,
			"count":5560,
			"max":[
				0.023547887802124023,
				0.021852824836969376,
				-0.004128396511077881
			],
			"min":[
				-0.023838043212890625,
				-0.02213779091835022,
				-0.029282569885253906
			],
			"type":"VEC3"
		},
		{
			"bufferView":7,
			"componentType":5126,
			"count":5560,
			"type":"VEC3"
		},
		{
			"bufferView":8,
			"componentType":5123,
			"count":13122,
			"type":"SCALAR"
		}
	],
	"bufferViews":[
		{
			"buffer":0,
			"byteLength":123156,
			"byteOffset":0,
			"target":34962
		},
		{
			"buffer":0,
			"byteLength":123156,
			"byteOffset":123156,
			"target":34962
		},
		{
			"buffer":0,
			"byteLength":49200,
			"byteOffset":246312,
			"target":34963
		},
		{
			"buffer":0,
			"byteLength":272088,
			"byteOffset":295512,
			"target":34962
		},
		{
			"buffer":0,
			"byteLength":272088,
			"byteOffset":567600,
			"target":34962
		},
		{
			"buffer":0,
			"byteLength":138132,
			"byteOffset":839688,
			"target":34963
		},
		{
			"buffer":0,
			"byteLength":66720,
			"byteOffset":977820,
			"target":34962
		},
		{
			"buffer":0,
			"byteLength":66720,
			"byteOffset":1044540,
			"target":34962
		},
		{
			"buffer":0,
			"byteLength":26244,
			"byteOffset":1111260,
			"target":34963
		}
	],
	"buffers":[
		{
			"byteLength":1137504,
			"uri":"Gen3Lite_j4.bin"
		}
	]
}
