{
	"asset":{
		"generator":"Khronos glTF Blender I/O v4.1.63",
		"version":"2.0"
	},
	"scene":0,
	"scenes":[
		{
			"name":"Scene",
			"nodes":[
				1,
				2,
				4,
				5,
				7,
				8,
				9,
				11,
				12,
				14,
				15
			]
		}
	],
	"nodes":[
		{
			"mesh":0,
			"name":"UPPER_WRIST_LITE",
			"rotation":[
				0,
				0,
				0.7071068286895752,
				0.7071068286895752
			]
		},
		{
			"children":[
				0
			],
			"name":"KinovaGen3Lite",
			"rotation":[
				0.70710688829422,
				0,
				0,
				0.7071066498756409
			]
		},
		{
			"name":"KinovaGen3Lite.001",
			"rotation":[
				0.70710688829422,
				0,
				0,
				0.7071066498756409
			]
		},
		{
			"name":"ARM_LITE005"
		},
		{
			"children":[
				3
			],
			"name":"KinovaGen3Lite.002",
			"rotation":[
				0.70710688829422,
				0,
				0,
				0.7071066498756409
			]
		},
		{
			"name":"KinovaGen3Lite.003",
			"rotation":[
				0.70710688829422,
				0,
				0,
				0.7071066498756409
			]
		},
		{
			"name":"ARM_LITE005.001"
		},
		{
			"children":[
				6
			],
			"name":"KinovaGen3Lite.004",
			"rotation":[
				0.70710688829422,
				0,
				0,
				0.7071066498756409
			]
		},
		{
			"name":"KinovaGen3Lite.005",
			"rotation":[
				0.70710688829422,
				0,
				0,
				0.7071066498756409
			]
		},
		{
			"name":"KinovaGen3Lite.006",
			"rotation":[
				0.70710688829422,
				0,
				0,
				0.7071066498756409
			]
		},
		{
			"name":"ARM_LITE005.002"
		},
		{
			"children":[
				10
			],
			"name":"KinovaGen3Lite.007",
			"rotation":[
				0.70710688829422,
				0,
				0,
				0.7071066498756409
			]
		},
		{
			"name":"KinovaGen3Lite.008",
			"rotation":[
				0.70710688829422,
				0,
				0,
				0.7071066498756409
			]
		},
		{
			"name":"ARM_LITE005.003"
		},
		{
			"children":[
				13
			],
			"name":"KinovaGen3Lite.009",
			"rotation":[
				0.70710688829422,
				0,
				0,
				0.7071066498756409
			]
		},
		{
			"name":"KinovaGen3Lite.010",
			"rotation":[
				0.70710688829422,
				0,
				0,
				0.7071066498756409
			]
		}
	],
	"materials":[
		{
			"doubleSided":true,
			"name":"mat_1",
			"pbrMetallicRoughness":{
				"baseColorFactor":[
					0.7011018991470337,
					0.68668532371521,
					0.693871796131134,
					1
				],
				"metallicFactor":0.5,
				"roughnessFactor":0.5
			}
		}
	],
	"meshes":[
		{
			"name":"UPPER_WRIST_LITE",
			"primitives":[
				{
					"attributes":{
						"POSITION":0,
						"NORMAL":1
					},
					"indices":2,
					"material":0
				}
			]
		}
	],
	"accessors":[
		{
			"bufferView":0,
			"componentType":5126,
			"count":2932,
			"max":[
				0.032739173620939255,
				-0.03439164161682129,
				0.03275596350431442
			],
			"min":[
				-0.03273038938641548,
				-0.09989021718502045,
				-0.1047489121556282
			],
			"type":"VEC3"
		},
		{
			"bufferView":1,
			"componentType":5126,
			"count":2932,
			"type":"VEC3"
		},
		{
			"bufferView":2,
			"componentType":5123,
			"count":11706,
			"type":"SCALAR"
		}
	],
	"bufferViews":[
		{
			"buffer":0,
			"byteLength":35184,
			"byteOffset":0,
			"target":34962
		},
		{
			"buffer":0,
			"byteLength":35184,
			"byteOffset":35184,
			"target":34962
		},
		{
			"buffer":0,
			"byteLength":23412,
			"byteOffset":70368,
			"target":34963
		}
	],
	"buffers":[
		{
			"byteLength":93780,
			"uri":"Gen3Lite_j3.bin"
		}
	]
}
