{
	"asset":{
		"generator":"Khronos glTF Blender I/O v4.1.63",
		"version":"2.0"
	},
	"scene":0,
	"scenes":[
		{
			"name":"Scene",
			"nodes":[
				2,
				3
			]
		}
	],
	"nodes":[
		{
			"mesh":0,
			"name":"ARM_LITE",
			"rotation":[
				0,
				0,
				0.7071068286895752,
				0.7071068286895752
			]
		},
		{
			"children":[
				0
			],
			"name":"ARM_LITE005"
		},
		{
			"children":[
				1
			],
			"name":"KinovaGen3Lite",
			"rotation":[
				0.70710688829422,
				0,
				0,
				0.7071066498756409
			]
		},
		{
			"name":"KinovaGen3Lite.001",
			"rotation":[
				0.70710688829422,
				0,
				0,
				0.7071066498756409
			]
		}
	],
	"materials":[
		{
			"doubleSided":true,
			"name":"mat_8",
			"pbrMetallicRoughness":{
				"baseColorFactor":[
					0.6038273572921753,
					0.6038273572921753,
					0.6038273572921753,
					1
				],
				"metallicFactor":0.5,
				"roughnessFactor":0.5
			}
		},
		{
			"doubleSided":true,
			"name":"mat_7",
			"pbrMetallicRoughness":{
				"baseColorFactor":[
					0,
					0,
					0.2158605307340622,
					1
				],
				"metallicFactor":0.5,
				"roughnessFactor":0.5
			}
		}
	],
	"meshes":[
		{
			"name":"ARM_LITE",
			"primitives":[
				{
					"attributes":{
						"POSITION":0,
						"NORMAL":1
					},
					"indices":2,
					"material":0
				},
				{
					"attributes":{
						"POSITION":3,
						"NORMAL":4
					},
					"indices":5,
					"material":1
				}
			]
		}
	],
	"accessors":[
		{
			"bufferView":0,
			"componentType":5126,
			"count":2464,
			"max":[
				0.039589010179042816,
				-0.029963191598653793,
				0.03944806754589081
			],
			"min":[
				-0.03923211246728897,
				-0.0847298800945282,
				-0.31954964995384216
			],
			"type":"VEC3"
		},
		{
			"bufferView":1,
			"componentType":5126,
			"count":2464,
			"type":"VEC3"
		},
		{
			"bufferView":2,
			"componentType":5123,
			"count":7311,
			"type":"SCALAR"
		},
		{
			"bufferView":3,
			"componentType":5126,
			"count":1326,
			"max":[
				0.006558231543749571,
				-0.08346918225288391,
				-0.15042172372341156
			],
			"min":[
				-0.0062728156335651875,
				-0.08671689033508301,
				-0.24368299543857574
			],
			"type":"VEC3"
		},
		{
			"bufferView":4,
			"componentType":5126,
			"count":1326,
			"type":"VEC3"
		},
		{
			"bufferView":5,
			"componentType":5123,
			"count":3321,
			"type":"SCALAR"
		}
	],
	"bufferViews":[
		{
			"buffer":0,
			"byteLength":29568,
			"byteOffset":0,
			"target":34962
		},
		{
			"buffer":0,
			"byteLength":29568,
			"byteOffset":29568,
			"target":34962
		},
		{
			"buffer":0,
			"byteLength":14622,
			"byteOffset":59136,
			"target":34963
		},
		{
			"buffer":0,
			"byteLength":15912,
			"byteOffset":73760,
			"target":34962
		},
		{
			"buffer":0,
			"byteLength":15912,
			"byteOffset":89672,
			"target":34962
		},
		{
			"buffer":0,
			"byteLength":6642,
			"byteOffset":105584,
			"target":34963
		}
	],
	"buffers":[
		{
			"byteLength":112228,
			"uri":"Gen3Lite_j1.bin"
		}
	]
}
