{
	"asset":{
		"generator":"Khronos glTF Blender I/O v4.1.63",
		"version":"2.0"
	},
	"scene":0,
	"scenes":[
		{
			"name":"Scene",
			"nodes":[
				1
			]
		}
	],
	"nodes":[
		{
			"mesh":0,
			"name":"SHOULDER_LITE",
			"rotation":[
				0,
				0,
				0.7071068286895752,
				0.7071067094802856
			],
			"translation":[
				0,
				0,
				-0.002749999985098839
			]
		},
		{
			"children":[
				0
			],
			"name":"KinovaGen3Lite",
			"rotation":[
				0.7071068286895752,
				0,
				0,
				0.7071068286895752
			]
		}
	],
	"materials":[
		{
			"doubleSided":true,
			"name":"mat_1",
			"pbrMetallicRoughness":{
				"baseColorFactor":[
					0.7011018991470337,
					0.68668532371521,
					0.693871796131134,
					1
				],
				"metallicFactor":0.5,
				"roughnessFactor":0.5
			}
		}
	],
	"meshes":[
		{
			"name":"SHOULDER_LITE",
			"primitives":[
				{
					"attributes":{
						"POSITION":0,
						"NORMAL":1
					},
					"indices":2,
					"material":0
				}
			]
		}
	],
	"accessors":[
		{
			"bufferView":0,
			"componentType":5126,
			"count":1646,
			"max":[
				0.03944748640060425,
				0.039499156177043915,
				-0.12549999356269836
			],
			"min":[
				-0.039420001208782196,
				-0.03949897736310959,
				-0.2799992561340332
			],
			"type":"VEC3"
		},
		{
			"bufferView":1,
			"componentType":5126,
			"count":1646,
			"type":"VEC3"
		},
		{
			"bufferView":2,
			"componentType":5123,
			"count":6804,
			"type":"SCALAR"
		}
	],
	"bufferViews":[
		{
			"buffer":0,
			"byteLength":19752,
			"byteOffset":0,
			"target":34962
		},
		{
			"buffer":0,
			"byteLength":19752,
			"byteOffset":19752,
			"target":34962
		},
		{
			"buffer":0,
			"byteLength":13608,
			"byteOffset":39504,
			"target":34963
		}
	],
	"buffers":[
		{
			"byteLength":53112,
			"uri":"Gen3Lite_j0.bin"
		}
	]
}
