{
	"asset":{
		"generator":"Khronos glTF Blender I/O v4.1.63",
		"version":"2.0"
	},
	"scene":0,
	"scenes":[
		{
			"name":"Scene",
			"nodes":[
				1,
				3,
				4,
				6,
				7
			]
		}
	],
	"nodes":[
		{
			"mesh":0,
			"name":"FOREARM_LITE",
			"rotation":[
				0,
				0,
				0.7071068286895752,
				0.7071068286895752
			]
		},
		{
			"children":[
				0
			],
			"name":"KinovaGen3Lite",
			"rotation":[
				0.70710688829422,
				0,
				0,
				0.7071066498756409
			]
		},
		{
			"name":"ARM_LITE005"
		},
		{
			"children":[
				2
			],
			"name":"KinovaGen3Lite.001",
			"rotation":[
				0.70710688829422,
				0,
				0,
				0.7071066498756409
			]
		},
		{
			"name":"KinovaGen3Lite.002",
			"rotation":[
				0.70710688829422,
				0,
				0,
				0.7071066498756409
			]
		},
		{
			"name":"ARM_LITE005.001"
		},
		{
			"children":[
				5
			],
			"name":"KinovaGen3Lite.003",
			"rotation":[
				0.70710688829422,
				0,
				0,
				0.7071066498756409
			]
		},
		{
			"name":"KinovaGen3Lite.004",
			"rotation":[
				0.70710688829422,
				0,
				0,
				0.7071066498756409
			]
		}
	],
	"materials":[
		{
			"doubleSided":true,
			"name":"mat_1",
			"pbrMetallicRoughness":{
				"baseColorFactor":[
					0.7011018991470337,
					0.68668532371521,
					0.693871796131134,
					1
				],
				"metallicFactor":0.5,
				"roughnessFactor":0.5
			}
		},
		{
			"doubleSided":true,
			"name":"mat_7",
			"pbrMetallicRoughness":{
				"baseColorFactor":[
					0,
					0,
					0.2158605307340622,
					1
				],
				"metallicFactor":0.5,
				"roughnessFactor":0.5
			}
		},
		{
			"doubleSided":true,
			"name":"mat_2",
			"pbrMetallicRoughness":{
				"baseColorFactor":[
					0.5906188488006592,
					0.6375969052314758,
					0.8549926280975342,
					1
				],
				"metallicFactor":0.5,
				"roughnessFactor":0.5
			}
		},
		{
			"doubleSided":true,
			"name":"mat_9",
			"pbrMetallicRoughness":{
				"metallicFactor":0.5,
				"roughnessFactor":0.5
			}
		}
	],
	"meshes":[
		{
			"name":"FOREARM_LITE",
			"primitives":[
				{
					"attributes":{
						"POSITION":0,
						"NORMAL":1
					},
					"indices":2,
					"material":0
				},
				{
					"attributes":{
						"POSITION":3,
						"NORMAL":4
					},
					"indices":5,
					"material":1
				},
				{
					"attributes":{
						"POSITION":6,
						"NORMAL":7
					},
					"indices":8,
					"material":2
				},
				{
					"attributes":{
						"POSITION":9,
						"NORMAL":10
					},
					"indices":11,
					"material":3
				}
			]
		}
	],
	"accessors":[
		{
			"bufferView":0,
			"componentType":5126,
			"count":4792,
			"max":[
				0.040106263011693954,
				0.023415395990014076,
				0.0394805446267128
			],
			"min":[
				-0.04015344753861427,
				-0.042881615459918976,
				-0.27777308225631714
			],
			"type":"VEC3"
		},
		{
			"bufferView":1,
			"componentType":5126,
			"count":4792,
			"type":"VEC3"
		},
		{
			"bufferView":2,
			"componentType":5123,
			"count":17916,
			"type":"SCALAR"
		},
		{
			"bufferView":3,
			"componentType":5126,
			"count":4346,
			"max":[
				0.006374563556164503,
				0.02506498247385025,
				-0.036599211394786835
			],
			"min":[
				-0.006487492937594652,
				0.022793933749198914,
				-0.12974047660827637
			],
			"type":"VEC3"
		},
		{
			"bufferView":4,
			"componentType":5126,
			"count":4346,
			"type":"VEC3"
		},
		{
			"bufferView":5,
			"componentType":5123,
			"count":13650,
			"type":"SCALAR"
		},
		{
			"bufferView":6,
			"componentType":5126,
			"count":749,
			"max":[
				0.006108548026531935,
				0.023409899324178696,
				-0.03709995001554489
			],
			"min":[
				-0.005946401972323656,
				0.022395296022295952,
				-0.12924063205718994
			],
			"type":"VEC3"
		},
		{
			"bufferView":7,
			"componentType":5126,
			"count":749,
			"type":"VEC3"
		},
		{
			"bufferView":8,
			"componentType":5123,
			"count":1986,
			"type":"SCALAR"
		},
		{
			"bufferView":9,
			"componentType":5126,
			"count":29,
			"max":[
				0.005862440448254347,
				0.023250196129083633,
				-0.11041485518217087
			],
			"min":[
				0.0032394188456237316,
				0.022415105253458023,
				-0.11322223395109177
			],
			"type":"VEC3"
		},
		{
			"bufferView":10,
			"componentType":5126,
			"count":29,
			"type":"VEC3"
		},
		{
			"bufferView":11,
			"componentType":5123,
			"count":81,
			"type":"SCALAR"
		}
	],
	"bufferViews":[
		{
			"buffer":0,
			"byteLength":57504,
			"byteOffset":0,
			"target":34962
		},
		{
			"buffer":0,
			"byteLength":57504,
			"byteOffset":57504,
			"target":34962
		},
		{
			"buffer":0,
			"byteLength":35832,
			"byteOffset":115008,
			"target":34963
		},
		{
			"buffer":0,
			"byteLength":52152,
			"byteOffset":150840,
			"target":34962
		},
		{
			"buffer":0,
			"byteLength":52152,
			"byteOffset":202992,
			"target":34962
		},
		{
			"buffer":0,
			"byteLength":27300,
			"byteOffset":255144,
			"target":34963
		},
		{
			"buffer":0,
			"byteLength":8988,
			"byteOffset":282444,
			"target":34962
		},
		{
			"buffer":0,
			"byteLength":8988,
			"byteOffset":291432,
			"target":34962
		},
		{
			"buffer":0,
			"byteLength":3972,
			"byteOffset":300420,
			"target":34963
		},
		{
			"buffer":0,
			"byteLength":348,
			"byteOffset":304392,
			"target":34962
		},
		{
			"buffer":0,
			"byteLength":348,
			"byteOffset":304740,
			"target":34962
		},
		{
			"buffer":0,
			"byteLength":162,
			"byteOffset":305088,
			"target":34963
		}
	],
	"buffers":[
		{
			"byteLength":305252,
			"uri":"Gen3Lite_j2.bin"
		}
	]
}
