{
	"asset":{
		"generator":"Khronos glTF Blender I/O v4.1.63",
		"version":"2.0"
	},
	"scene":0,
	"scenes":[
		{
			"name":"Scene",
			"nodes":[
				16
			]
		}
	],
	"nodes":[
		{
			"mesh":0,
			"name":"COMPOUND"
		},
		{
			"mesh":1,
			"name":"COMPOUND001"
		},
		{
			"mesh":2,
			"name":"COMPOUND002"
		},
		{
			"mesh":3,
			"name":"COMPOUND003"
		},
		{
			"mesh":4,
			"name":"COMPOUND004"
		},
		{
			"mesh":5,
			"name":"COMPOUND005"
		},
		{
			"mesh":6,
			"name":"COMPOUND006"
		},
		{
			"mesh":7,
			"name":"COMPOUND007"
		},
		{
			"mesh":8,
			"name":"COMPOUND008"
		},
		{
			"mesh":9,
			"name":"COMPOUND009"
		},
		{
			"mesh":10,
			"name":"COMPOUND010"
		},
		{
			"mesh":11,
			"name":"COMPOUND011"
		},
		{
			"mesh":12,
			"name":"COMPOUND012"
		},
		{
			"children":[
				0,
				1,
				2,
				3,
				4,
				5,
				6,
				7,
				8,
				9,
				10,
				11,
				12
			],
			"name":"COMPOUND013"
		},
		{
			"mesh":13,
			"name":"SHELL"
		},
		{
			"children":[
				13,
				14
			],
			"name":"BASE_MODEL_LITE"
		},
		{
			"children":[
				15
			],
			"name":"KinovaGen3Lite",
			"rotation":[
				0.7071068286895752,
				0,
				0,
				0.7071068286895752
			]
		}
	],
	"materials":[
		{
			"doubleSided":true,
			"name":"mat_1",
			"pbrMetallicRoughness":{
				"baseColorFactor":[
					0.7011018991470337,
					0.68668532371521,
					0.693871796131134,
					1
				],
				"metallicFactor":0.5,
				"roughnessFactor":0.5
			}
		},
		{
			"doubleSided":true,
			"name":"mat_2",
			"pbrMetallicRoughness":{
				"baseColorFactor":[
					0.5906188488006592,
					0.6375969052314758,
					0.8549926280975342,
					1
				],
				"metallicFactor":0.5,
				"roughnessFactor":0.5
			}
		},
		{
			"doubleSided":true,
			"name":"mat_3",
			"pbrMetallicRoughness":{
				"baseColorFactor":[
					0.7230551242828369,
					0.7230551242828369,
					0.7681511640548706,
					1
				]
			}
		},
		{
			"doubleSided":true,
			"name":"mat_4",
			"pbrMetallicRoughness":{
				"baseColorFactor":[
					0.009721217676997185,
					0.009721217676997185,
					0.009721217676997185,
					1
				]
			}
		},
		{
			"doubleSided":true,
			"name":"mat_0",
			"pbrMetallicRoughness":{
				"baseColorFactor":[
					0.011612244881689548,
					0.011612244881689548,
					0.011612244881689548,
					1
				]
			}
		},
		{
			"doubleSided":true,
			"name":"mat_5",
			"pbrMetallicRoughness":{
				"baseColorFactor":[
					0.6038273572921753,
					0.6239604353904724,
					0.6038273572921753,
					1
				]
			}
		}
	],
	"meshes":[
		{
			"name":"COMPOUND",
			"primitives":[
				{
					"attributes":{
						"POSITION":0,
						"NORMAL":1
					},
					"indices":2,
					"material":0
				},
				{
					"attributes":{
						"POSITION":3,
						"NORMAL":4
					},
					"indices":5,
					"material":1
				}
			]
		},
		{
			"name":"COMPOUND001",
			"primitives":[
				{
					"attributes":{
						"POSITION":6,
						"NORMAL":7
					},
					"indices":8,
					"material":2
				},
				{
					"attributes":{
						"POSITION":9,
						"NORMAL":10
					},
					"indices":11,
					"material":3
				}
			]
		},
		{
			"name":"COMPOUND002",
			"primitives":[
				{
					"attributes":{
						"POSITION":12,
						"NORMAL":13
					},
					"indices":14,
					"material":4
				}
			]
		},
		{
			"name":"COMPOUND003",
			"primitives":[
				{
					"attributes":{
						"POSITION":15,
						"NORMAL":16
					},
					"indices":17,
					"material":5
				},
				{
					"attributes":{
						"POSITION":18,
						"NORMAL":19
					},
					"indices":20,
					"material":1
				},
				{
					"attributes":{
						"POSITION":21,
						"NORMAL":22
					},
					"indices":23,
					"material":0
				}
			]
		},
		{
			"name":"COMPOUND004",
			"primitives":[
				{
					"attributes":{
						"POSITION":24,
						"NORMAL":25
					},
					"indices":26,
					"material":5
				}
			]
		},
		{
			"name":"COMPOUND005",
			"primitives":[
				{
					"attributes":{
						"POSITION":27,
						"NORMAL":28
					},
					"indices":29,
					"material":5
				}
			]
		},
		{
			"name":"COMPOUND006",
			"primitives":[
				{
					"attributes":{
						"POSITION":30,
						"NORMAL":31
					},
					"indices":32,
					"material":5
				}
			]
		},
		{
			"name":"COMPOUND007",
			"primitives":[
				{
					"attributes":{
						"POSITION":33,
						"NORMAL":34
					},
					"indices":35,
					"material":1
				}
			]
		},
		{
			"name":"COMPOUND008",
			"primitives":[
				{
					"attributes":{
						"POSITION":36,
						"NORMAL":37
					},
					"indices":38,
					"material":1
				}
			]
		},
		{
			"name":"COMPOUND009",
			"primitives":[
				{
					"attributes":{
						"POSITION":39,
						"NORMAL":40
					},
					"indices":41,
					"material":5
				}
			]
		},
		{
			"name":"COMPOUND010",
			"primitives":[
				{
					"attributes":{
						"POSITION":42,
						"NORMAL":43
					},
					"indices":44,
					"material":5
				}
			]
		},
		{
			"name":"COMPOUND011",
			"primitives":[
				{
					"attributes":{
						"POSITION":45,
						"NORMAL":46
					},
					"indices":47,
					"material":5
				}
			]
		},
		{
			"name":"COMPOUND012",
			"primitives":[
				{
					"attributes":{
						"POSITION":48,
						"NORMAL":49
					},
					"indices":50,
					"material":1
				}
			]
		},
		{
			"name":"SHELL",
			"primitives":[
				{
					"attributes":{
						"POSITION":51,
						"NORMAL":52
					},
					"indices":53,
					"material":4
				}
			]
		}
	],
	"accessors":[
		{
			"bufferView":0,
			"componentType":5126,
			"count":10136,
			"max":[
				0.039500001817941666,
				0.039500001817941666,
				-0.0010820637689903378
			],
			"min":[
				-0.039500001817941666,
				-0.03989764675498009,
				-0.12825000286102295
			],
			"type":"VEC3"
		},
		{
			"bufferView":1,
			"componentType":5126,
			"count":10136,
			"type":"VEC3"
		},
		{
			"bufferView":2,
			"componentType":5123,
			"count":30438,
			"type":"SCALAR"
		},
		{
			"bufferView":3,
			"componentType":5126,
			"count":10,
			"max":[
				-0.02970379963517189,
				0.02288961037993431,
				-0.04817509651184082
			],
			"min":[
				-0.030495958402752876,
				0.02250000089406967,
				-0.0702476054430008
			],
			"type":"VEC3"
		},
		{
			"bufferView":4,
			"componentType":5126,
			"count":10,
			"type":"VEC3"
		},
		{
			"bufferView":5,
			"componentType":5123,
			"count":24,
			"type":"SCALAR"
		},
		{
			"bufferView":6,
			"componentType":5126,
			"count":162,
			"max":[
				0.02337520942091942,
				0.023399999365210533,
				1.2246467937777962e-20
			],
			"min":[
				-0.02337520942091942,
				-0.023399999365210533,
				-0.00800000037997961
			],
			"type":"VEC3"
		},
		{
			"bufferView":7,
			"componentType":5126,
			"count":162,
			"type":"VEC3"
		},
		{
			"bufferView":8,
			"componentType":5123,
			"count":468,
			"type":"SCALAR"
		},
		{
			"bufferView":9,
			"componentType":5126,
			"count":806,
			"max":[
				0.03737782686948776,
				0.03750000149011612,
				1.734723475976807e-18
			],
			"min":[
				-0.03737782686948776,
				-0.03750000149011612,
				-0.009999999776482582
			],
			"type":"VEC3"
		},
		{
			"bufferView":10,
			"componentType":5126,
			"count":806,
			"type":"VEC3"
		},
		{
			"bufferView":11,
			"componentType":5123,
			"count":2352,
			"type":"SCALAR"
		},
		{
			"bufferView":12,
			"componentType":5126,
			"count":1457,
			"max":[
				-0.0027490342035889626,
				0.03350021690130234,
				-0.051922786980867386
			],
			"min":[
				-0.020749034360051155,
				0.016432011500000954,
				-0.06813844293355942
			],
			"type":"VEC3"
		},
		{
			"bufferView":13,
			"componentType":5126,
			"count":1457,
			"type":"VEC3"
		},
		{
			"bufferView":14,
			"componentType":5123,
			"count":4941,
			"type":"SCALAR"
		},
		{
			"bufferView":15,
			"componentType":5126,
			"count":6109,
			"max":[
				0.03129495307803154,
				0.025819094851613045,
				-0.023580368608236313
			],
			"min":[
				-0.007948050275444984,
				0.008115294389426708,
				-0.0361279733479023
			],
			"type":"VEC3"
		},
		{
			"bufferView":16,
			"componentType":5126,
			"count":6109,
			"type":"VEC3"
		},
		{
			"bufferView":17,
			"componentType":5123,
			"count":19968,
			"type":"SCALAR"
		},
		{
			"bufferView":18,
			"componentType":5126,
			"count":6887,
			"max":[
				0.03129495307803154,
				0.02518409490585327,
				-0.023580368608236313
			],
			"min":[
				-0.007948050275444984,
				0.009537694044411182,
				-0.0361279733479023
			],
			"type":"VEC3"
		},
		{
			"bufferView":19,
			"componentType":5126,
			"count":6887,
			"type":"VEC3"
		},
		{
			"bufferView":20,
			"componentType":5123,
			"count":18936,
			"type":"SCALAR"
		},
		{
			"bufferView":21,
			"componentType":5126,
			"count":1354,
			"max":[
				0.02528407797217369,
				0.019342094659805298,
				-0.02424076944589615
			],
			"min":[
				-0.0019341600127518177,
				0.01410969439893961,
				-0.03546757251024246
			],
			"type":"VEC3"
		},
		{
			"bufferView":22,
			"componentType":5126,
			"count":1354,
			"type":"VEC3"
		},
		{
			"bufferView":23,
			"componentType":5123,
			"count":4830,
			"type":"SCALAR"
		},
		{
			"bufferView":24,
			"componentType":5126,
			"count":3092,
			"max":[
				0.019501088187098503,
				0.02681269869208336,
				-0.06425100564956665
			],
			"min":[
				0.009501088410615921,
				0.019812699407339096,
				-0.06525591015815735
			],
			"type":"VEC3"
		},
		{
			"bufferView":25,
			"componentType":5126,
			"count":3092,
			"type":"VEC3"
		},
		{
			"bufferView":26,
			"componentType":5123,
			"count":9132,
			"type":"SCALAR"
		},
		{
			"bufferView":27,
			"componentType":5126,
			"count":621,
			"max":[
				0.021051088348031044,
				0.02731269784271717,
				-0.06414100527763367
			],
			"min":[
				0.00795108824968338,
				0.012712698429822922,
				-0.06996100395917892
			],
			"type":"VEC3"
		},
		{
			"bufferView":28,
			"componentType":5126,
			"count":621,
			"type":"VEC3"
		},
		{
			"bufferView":29,
			"componentType":5123,
			"count":1368,
			"type":"SCALAR"
		},
		{
			"bufferView":30,
			"componentType":5126,
			"count":2970,
			"max":[
				0.022397395223379135,
				0.02771269902586937,
				-0.06361100822687149
			],
			"min":[
				0.006604779977351427,
				0.008812698535621166,
				-0.07061100751161575
			],
			"type":"VEC3"
		},
		{
			"bufferView":31,
			"componentType":5126,
			"count":2970,
			"type":"VEC3"
		},
		{
			"bufferView":32,
			"componentType":5123,
			"count":6552,
			"type":"SCALAR"
		},
		{
			"bufferView":33,
			"componentType":5126,
			"count":1778,
			"max":[
				0.019501088187098503,
				0.02681269869208336,
				-0.06896430253982544
			],
			"min":[
				0.013741087168455124,
				0.019812699407339096,
				-0.0699710100889206
			],
			"type":"VEC3"
		},
		{
			"bufferView":34,
			"componentType":5126,
			"count":1778,
			"type":"VEC3"
		},
		{
			"bufferView":35,
			"componentType":5123,
			"count":5064,
			"type":"SCALAR"
		},
		{
			"bufferView":36,
			"componentType":5126,
			"count":1787,
			"max":[
				0.014951087534427643,
				0.02681269869208336,
				-0.06896433979272842
			],
			"min":[
				0.009501087479293346,
				0.019812699407339096,
				-0.0699710100889206
			],
			"type":"VEC3"
		},
		{
			"bufferView":37,
			"componentType":5126,
			"count":1787,
			"type":"VEC3"
		},
		{
			"bufferView":38,
			"componentType":5123,
			"count":5064,
			"type":"SCALAR"
		},
		{
			"bufferView":39,
			"componentType":5126,
			"count":4612,
			"max":[
				-0.01099885068833828,
				0.034512680023908615,
				-0.019856629893183708
			],
			"min":[
				-0.030998850241303444,
				0.00901267770677805,
				-0.039845481514930725
			],
			"type":"VEC3"
		},
		{
			"bufferView":40,
			"componentType":5126,
			"count":4612,
			"type":"VEC3"
		},
		{
			"bufferView":41,
			"componentType":5123,
			"count":14826,
			"type":"SCALAR"
		},
		{
			"bufferView":42,
			"componentType":5126,
			"count":2040,
			"max":[
				0.01794101670384407,
				0.0170126985758543,
				-0.053226325660943985
			],
			"min":[
				0.01104101724922657,
				0.012712698429822922,
				-0.05552632734179497
			],
			"type":"VEC3"
		},
		{
			"bufferView":43,
			"componentType":5126,
			"count":2040,
			"type":"VEC3"
		},
		{
			"bufferView":44,
			"componentType":5123,
			"count":4356,
			"type":"SCALAR"
		},
		{
			"bufferView":45,
			"componentType":5126,
			"count":2451,
			"max":[
				0.018491016700863838,
				0.0183247122913599,
				-0.05290132761001587
			],
			"min":[
				0.010491017252206802,
				0.011175433173775673,
				-0.055801328271627426
			],
			"type":"VEC3"
		},
		{
			"bufferView":46,
			"componentType":5126,
			"count":2451,
			"type":"VEC3"
		},
		{
			"bufferView":47,
			"componentType":5123,
			"count":5460,
			"type":"SCALAR"
		},
		{
			"bufferView":48,
			"componentType":5126,
			"count":1121,
			"max":[
				0.0005356624023988843,
				0.02800000086426735,
				-0.04714423418045044
			],
			"min":[
				-0.024035662412643433,
				0.0182499997317791,
				-0.07305576652288437
			],
			"type":"VEC3"
		},
		{
			"bufferView":49,
			"componentType":5126,
			"count":1121,
			"type":"VEC3"
		},
		{
			"bufferView":50,
			"componentType":5123,
			"count":3756,
			"type":"SCALAR"
		},
		{
			"bufferView":51,
			"componentType":5126,
			"count":6901,
			"max":[
				-0.0002620598825160414,
				0.029999999329447746,
				-0.048653192818164825
			],
			"min":[
				-0.02323600836098194,
				0.012699998915195465,
				-0.07160112261772156
			],
			"type":"VEC3"
		},
		{
			"bufferView":52,
			"componentType":5126,
			"count":6901,
			"type":"VEC3"
		},
		{
			"bufferView":53,
			"componentType":5123,
			"count":15648,
			"type":"SCALAR"
		}
	],
	"bufferViews":[
		{
			"buffer":0,
			"byteLength":121632,
			"byteOffset":0,
			"target":34962
		},
		{
			"buffer":0,
			"byteLength":121632,
			"byteOffset":121632,
			"target":34962
		},
		{
			"buffer":0,
			"byteLength":60876,
			"byteOffset":243264,
			"target":34963
		},
		{
			"buffer":0,
			"byteLength":120,
			"byteOffset":304140,
			"target":34962
		},
		{
			"buffer":0,
			"byteLength":120,
			"byteOffset":304260,
			"target":34962
		},
		{
			"buffer":0,
			"byteLength":48,
			"byteOffset":304380,
			"target":34963
		},
		{
			"buffer":0,
			"byteLength":1944,
			"byteOffset":304428,
			"target":34962
		},
		{
			"buffer":0,
			"byteLength":1944,
			"byteOffset":306372,
			"target":34962
		},
		{
			"buffer":0,
			"byteLength":936,
			"byteOffset":308316,
			"target":34963
		},
		{
			"buffer":0,
			"byteLength":9672,
			"byteOffset":309252,
			"target":34962
		},
		{
			"buffer":0,
			"byteLength":9672,
			"byteOffset":318924,
			"target":34962
		},
		{
			"buffer":0,
			"byteLength":4704,
			"byteOffset":328596,
			"target":34963
		},
		{
			"buffer":0,
			"byteLength":17484,
			"byteOffset":333300,
			"target":34962
		},
		{
			"buffer":0,
			"byteLength":17484,
			"byteOffset":350784,
			"target":34962
		},
		{
			"buffer":0,
			"byteLength":9882,
			"byteOffset":368268,
			"target":34963
		},
		{
			"buffer":0,
			"byteLength":73308,
			"byteOffset":378152,
			"target":34962
		},
		{
			"buffer":0,
			"byteLength":73308,
			"byteOffset":451460,
			"target":34962
		},
		{
			"buffer":0,
			"byteLength":39936,
			"byteOffset":524768,
			"target":34963
		},
		{
			"buffer":0,
			"byteLength":82644,
			"byteOffset":564704,
			"target":34962
		},
		{
			"buffer":0,
			"byteLength":82644,
			"byteOffset":647348,
			"target":34962
		},
		{
			"buffer":0,
			"byteLength":37872,
			"byteOffset":729992,
			"target":34963
		},
		{
			"buffer":0,
			"byteLength":16248,
			"byteOffset":767864,
			"target":34962
		},
		{
			"buffer":0,
			"byteLength":16248,
			"byteOffset":784112,
			"target":34962
		},
		{
			"buffer":0,
			"byteLength":9660,
			"byteOffset":800360,
			"target":34963
		},
		{
			"buffer":0,
			"byteLength":37104,
			"byteOffset":810020,
			"target":34962
		},
		{
			"buffer":0,
			"byteLength":37104,
			"byteOffset":847124,
			"target":34962
		},
		{
			"buffer":0,
			"byteLength":18264,
			"byteOffset":884228,
			"target":34963
		},
		{
			"buffer":0,
			"byteLength":7452,
			"byteOffset":902492,
			"target":34962
		},
		{
			"buffer":0,
			"byteLength":7452,
			"byteOffset":909944,
			"target":34962
		},
		{
			"buffer":0,
			"byteLength":2736,
			"byteOffset":917396,
			"target":34963
		},
		{
			"buffer":0,
			"byteLength":35640,
			"byteOffset":920132,
			"target":34962
		},
		{
			"buffer":0,
			"byteLength":35640,
			"byteOffset":955772,
			"target":34962
		},
		{
			"buffer":0,
			"byteLength":13104,
			"byteOffset":991412,
			"target":34963
		},
		{
			"buffer":0,
			"byteLength":21336,
			"byteOffset":1004516,
			"target":34962
		},
		{
			"buffer":0,
			"byteLength":21336,
			"byteOffset":1025852,
			"target":34962
		},
		{
			"buffer":0,
			"byteLength":10128,
			"byteOffset":1047188,
			"target":34963
		},
		{
			"buffer":0,
			"byteLength":21444,
			"byteOffset":1057316,
			"target":34962
		},
		{
			"buffer":0,
			"byteLength":21444,
			"byteOffset":1078760,
			"target":34962
		},
		{
			"buffer":0,
			"byteLength":10128,
			"byteOffset":1100204,
			"target":34963
		},
		{
			"buffer":0,
			"byteLength":55344,
			"byteOffset":1110332,
			"target":34962
		},
		{
			"buffer":0,
			"byteLength":55344,
			"byteOffset":1165676,
			"target":34962
		},
		{
			"buffer":0,
			"byteLength":29652,
			"byteOffset":1221020,
			"target":34963
		},
		{
			"buffer":0,
			"byteLength":24480,
			"byteOffset":1250672,
			"target":34962
		},
		{
			"buffer":0,
			"byteLength":24480,
			"byteOffset":1275152,
			"target":34962
		},
		{
			"buffer":0,
			"byteLength":8712,
			"byteOffset":1299632,
			"target":34963
		},
		{
			"buffer":0,
			"byteLength":29412,
			"byteOffset":1308344,
			"target":34962
		},
		{
			"buffer":0,
			"byteLength":29412,
			"byteOffset":1337756,
			"target":34962
		},
		{
			"buffer":0,
			"byteLength":10920,
			"byteOffset":1367168,
			"target":34963
		},
		{
			"buffer":0,
			"byteLength":13452,
			"byteOffset":1378088,
			"target":34962
		},
		{
			"buffer":0,
			"byteLength":13452,
			"byteOffset":1391540,
			"target":34962
		},
		{
			"buffer":0,
			"byteLength":7512,
			"byteOffset":1404992,
			"target":34963
		},
		{
			"buffer":0,
			"byteLength":82812,
			"byteOffset":1412504,
			"target":34962
		},
		{
			"buffer":0,
			"byteLength":82812,
			"byteOffset":1495316,
			"target":34962
		},
		{
			"buffer":0,
			"byteLength":31296,
			"byteOffset":1578128,
			"target":34963
		}
	],
	"buffers":[
		{
			"byteLength":1609424,
			"uri":"Gen3Lite_base.bin"
		}
	]
}
